<?xml version="1.0" encoding="UTF-8" standalone="no"?>
<svg
   xmlns:dc="http://purl.org/dc/elements/1.1/"
   xmlns:cc="http://creativecommons.org/ns#"
   xmlns:rdf="http://www.w3.org/1999/02/22-rdf-syntax-ns#"
   xmlns:svg="http://www.w3.org/2000/svg"
   xmlns="http://www.w3.org/2000/svg"
   viewBox="0 0 3125 3125"
   height="3125"
   width="3125"
   xml:space="preserve"
   version="1.1"
   id="svg2"><metadata
     id="metadata8"><rdf:RDF><cc:Work
         rdf:about=""><dc:format>image/svg+xml</dc:format><dc:type
           rdf:resource="http://purl.org/dc/dcmitype/StillImage" /><dc:title></dc:title></cc:Work></rdf:RDF></metadata><defs
     id="defs6"><clipPath
       id="clipPath16"
       clipPathUnits="userSpaceOnUse"><path
         id="path18"
         d="m 0,2500 2500,0 L 2500,0 0,0 0,2500 Z" /></clipPath></defs><g
     transform="matrix(1.25,0,0,-1.25,0,3125)"
     id="g10"><g
       id="g12"><g
         clip-path="url(#clipPath16)"
         id="g14"><g
           transform="translate(1852.8867,1781.7847)"
           id="g20"><path
             id="path22"
             style="fill:#f05440;fill-opacity:1;fill-rule:nonzero;stroke:none"
             d="M 0,0 231.852,-326.798 520.065,-248.42 270.019,63.775 0,0 Z m -1732.488,396.336 583.947,-1098.503 483.812,131.565 -616.261,1027.695 -451.498,-60.757 z m 1183.787,-1013.628 258.775,-431.547 754.121,264.067 -263.416,371.29 -749.48,-203.81 z m 242.227,-515.093 c -12.967,0 -25.404,6.705 -32.383,18.338 l -285.535,476.172 -533.426,-145.053 c -17.019,-4.646 -34.956,3.137 -43.238,18.706 l -623.56,1173.019 c -5.796,10.908 -5.89,23.966 -0.25,34.955 5.64,10.994 16.306,18.527 28.55,20.177 l 529.887,71.304 c 14.943,2.007 29.651,-5.066 37.409,-17.998 L -589.043,-550.02 154.248,-347.896 -93.996,2.015 c -7.267,10.245 -8.962,23.425 -4.53,35.173 4.431,11.748 14.418,20.525 26.64,23.409 l 347.779,82.138 c 14.188,3.358 29.024,-1.766 38.141,-13.14 l 300.945,-375.742 c 7.946,-9.929 10.363,-23.196 6.422,-35.291 -3.94,-12.096 -13.706,-21.394 -25.985,-24.732 l -317.033,-86.214 276.4,-389.598 c 6.865,-9.675 8.782,-22.008 5.186,-33.305 -3.605,-11.296 -12.305,-20.247 -23.495,-24.167 l -830.48,-290.806 c -4.103,-1.438 -8.314,-2.125 -12.468,-2.125" /></g><path
           id="path24"
           style="fill:#6e6e6e;fill-opacity:1;fill-rule:nonzero;stroke:none"
           d="m 564.412,541.106 31.56,0 0,-339.947 -31.56,0 0,339.947 z" /><g
           transform="translate(779.8076,422.3066)"
           id="g26"><path
             id="path28"
             style="fill:#6e6e6e;fill-opacity:1;fill-rule:nonzero;stroke:none"
             d="m 0,0 c -17.561,0 -33.777,-4.317 -48.64,-12.947 -14.863,-8.634 -26.683,-20.758 -35.46,-36.369 -8.784,-15.611 -13.172,-32.123 -13.172,-49.534 0,-17.267 4.426,-33.78 13.285,-49.538 8.852,-15.76 20.755,-28.035 35.685,-36.815 14.939,-8.784 30.959,-13.173 48.076,-13.173 17.261,0 33.626,4.355 49.091,13.06 15.457,8.709 27.352,20.492 35.685,35.351 8.325,14.86 12.496,31.597 12.496,50.214 0,28.369 -9.348,52.088 -28.036,71.151 C 50.323,-9.535 27.322,0 0,0 m 126.126,24.12 0,-245.267 -31.109,0 0,42.158 c -13.225,-16.084 -28.065,-28.182 -44.521,-36.297 -16.457,-8.115 -34.454,-12.174 -53.99,-12.174 -34.716,0 -64.36,12.587 -88.931,37.764 -24.572,25.168 -36.858,55.793 -36.858,91.861 0,35.313 12.399,65.52 37.196,90.621 24.797,25.098 54.629,37.647 89.494,37.647 20.138,0 38.361,-4.284 54.666,-12.85 16.306,-8.566 30.621,-21.415 42.944,-38.548 l 0,45.085 31.109,0 z" /></g><g
           transform="translate(964.9956,446.4268)"
           id="g30"><path
             id="path32"
             style="fill:#6e6e6e;fill-opacity:1;fill-rule:nonzero;stroke:none"
             d="m 0,0 32.236,0 0,-35.843 c 9.618,14.123 19.763,24.685 30.432,31.673 10.671,6.988 21.792,10.482 33.364,10.482 8.717,0 18.034,-2.784 27.953,-8.34 l -16.456,-26.601 c -6.613,2.852 -12.174,4.283 -16.682,4.283 -10.52,0 -20.664,-4.32 -30.432,-12.962 -9.769,-8.645 -17.208,-22.057 -22.318,-40.238 -3.907,-13.976 -5.861,-42.234 -5.861,-84.761 l 0,-82.961 -32.236,0 L 0,0 Z" /></g><g
           transform="translate(1234.0425,422.3066)"
           id="g34"><path
             id="path36"
             style="fill:#6e6e6e;fill-opacity:1;fill-rule:nonzero;stroke:none"
             d="m 0,0 c -17.561,0 -33.776,-4.317 -48.64,-12.947 -14.863,-8.634 -26.683,-20.758 -35.459,-36.369 -8.784,-15.611 -13.172,-32.123 -13.172,-49.534 0,-17.267 4.425,-33.78 13.285,-49.538 8.851,-15.76 20.754,-28.035 35.685,-36.815 14.938,-8.784 30.958,-13.173 48.075,-13.173 17.261,0 33.627,4.355 49.091,13.06 15.457,8.709 27.352,20.492 35.685,35.351 8.325,14.86 12.496,31.597 12.496,50.214 0,28.369 -9.347,52.088 -28.036,71.151 C 50.323,-9.535 27.322,0 0,0 m 126.126,24.12 0,-245.267 -31.109,0 0,42.158 c -13.225,-16.084 -28.065,-28.182 -44.521,-36.297 -16.456,-8.115 -34.453,-12.174 -53.99,-12.174 -34.716,0 -64.36,12.587 -88.931,37.764 -24.572,25.168 -36.857,55.793 -36.857,91.861 0,35.313 12.398,65.52 37.195,90.621 24.797,25.098 54.629,37.647 89.495,37.647 20.137,0 38.36,-4.284 54.666,-12.85 16.305,-8.566 30.62,-21.415 42.943,-38.548 l 0,45.085 31.109,0 z" /></g><g
           transform="translate(1407.959,446.4268)"
           id="g38"><path
             id="path40"
             style="fill:#6e6e6e;fill-opacity:1;fill-rule:nonzero;stroke:none"
             d="M 0,0 33.589,0 115.915,-178.785 197.249,0 231.062,0 118.8,-245.268 l -5.861,0 L 0,0 Z" /></g><g
           transform="translate(1893.5283,348.5918)"
           id="g42"><path
             id="path44"
             style="fill:#6e6e6e;fill-opacity:1;fill-rule:nonzero;stroke:none"
             d="m 0,0 c -4.215,16.828 -10.347,30.282 -18.395,40.352 -8.054,10.065 -18.695,18.18 -31.935,24.345 -13.247,6.162 -27.164,9.243 -41.757,9.243 -24.075,0 -44.769,-7.743 -62.067,-23.218 C -166.801,39.45 -176.351,22.543 -182.82,0 L 0,0 Z M 0,-66.05 26.601,-80.026 C 17.877,-97.159 7.8,-110.988 -3.637,-121.505 c -11.428,-10.523 -24.293,-18.526 -38.578,-24.012 -14.299,-5.485 -30.47,-8.228 -48.518,-8.228 -40.014,0 -71.296,13.112 -93.861,39.341 -22.565,26.224 -33.844,55.869 -33.844,88.931 0,31.109 9.55,58.836 28.652,83.182 24.218,30.959 56.635,46.438 97.249,46.438 41.816,0 75.21,-15.858 100.18,-47.565 C 25.391,34.187 34.416,6.233 34.716,-27.276 l -220.693,0 c 0.601,-28.487 9.702,-51.841 27.307,-70.059 17.606,-18.219 39.352,-27.326 65.231,-27.326 12.489,0 24.631,2.172 36.452,6.512 11.804,4.338 21.851,10.106 30.124,17.294 8.281,7.183 17.23,18.785 26.863,34.805" /></g><path
           id="path46"
           style="fill:#6e6e6e;fill-opacity:1;fill-rule:nonzero;stroke:none"
           d="m 1982.347,541.106 31.56,0 0,-339.947 -31.56,0 0,339.947 z" /></g></g></g></svg>